<?xml version="1.0" encoding="UTF-8"?>
<svg width="24px" height="24px" viewBox="0 0 24 24" version="1.1" xmlns="http://www.w3.org/2000/svg" xmlns:xlink="http://www.w3.org/1999/xlink">
    <!-- Generator: Sketch 52.6 (67491) - http://www.bohemiancoding.com/sketch -->
    <title>shop-v2</title>
    <desc>Created with Sketch.</desc>
    <g id="Page-1" stroke="none" stroke-width="1" fill="none" fill-rule="evenodd">
        <g id="Dashboard" transform="translate(-45.000000, -21.000000)" fill="#FFFFFF" fill-rule="nonzero">
            <g id="shop-v2" transform="translate(45.000000, 21.000000)">
                <path d="M16.1953052,19.2053274 C16.1953052,19.1786903 16.1953052,19.1254162 16.1953052,19.0987791 C16.1953052,18.9655938 16.2478873,18.8324084 16.3530516,18.7258602 C16.3793427,18.6992231 16.4056338,18.672586 16.4319249,18.672586 C16.458216,18.6459489 16.484507,18.6459489 16.5107981,18.6193119 C16.5370892,18.6193119 16.5633803,18.5926748 16.6159624,18.5926748 C16.6948357,18.5660377 16.7474178,18.5660377 16.8262911,18.5926748 C16.8525822,18.5926748 16.8788732,18.6193119 16.9314554,18.6193119 C16.9840376,18.6193119 16.9840376,18.6459489 17.0103286,18.672586 C17.0366197,18.6992231 17.0629108,18.7258602 17.0892019,18.7258602 C17.1943662,18.8324084 17.2469484,18.9655938 17.2469484,19.0987791 C17.2469484,19.1254162 17.2469484,19.1786903 17.2469484,19.2053274 C17.2469484,19.2319645 17.2206573,19.2586016 17.2206573,19.3118757 C17.1943662,19.3385128 17.1943662,19.3651498 17.1680751,19.418424 C17.115493,19.418424 17.0892019,19.445061 17.0892019,19.4716981 C17.0629108,19.4983352 17.0366197,19.5249723 17.0103286,19.5249723 C16.9840376,19.5516093 16.9577465,19.5516093 16.9314554,19.5782464 C16.9051643,19.5782464 16.8788732,19.6048835 16.8262911,19.6048835 C16.8,19.6048835 16.7474178,19.6048835 16.7211268,19.6048835 C16.5896714,19.6048835 16.458216,19.5516093 16.3530516,19.445061 C16.3267606,19.418424 16.3004695,19.3917869 16.3004695,19.3651498 C16.2741784,19.3385128 16.2741784,19.3118757 16.2478873,19.2586016 C16.2215962,19.2053274 16.1953052,19.2319645 16.1953052,19.2053274 Z M4.44319249,19.6315205 C4.15399061,19.6315205 3.91737089,19.3917869 3.91737089,19.0987791 L3.91737089,14.8901221 C3.91737089,14.5971143 4.15399061,14.3573807 4.44319249,14.3573807 L9.96431925,14.3573807 C10.2535211,14.3573807 10.4901408,14.5971143 10.4901408,14.8901221 L10.4901408,19.0987791 C10.4901408,19.3917869 10.2535211,19.6315205 9.96431925,19.6315205 L4.44319249,19.6315205 Z M4.96901408,18.5660377 L9.43849765,18.5660377 L9.43849765,15.4228635 L4.96901408,15.4228635 L4.96901408,18.5660377 Z M1.68262911,13.9844617 C1.81408451,13.9844617 1.94553991,13.9311876 2.05070423,13.8246393 C2.15586854,13.718091 2.2084507,13.5849057 2.2084507,13.4517203 C2.2084507,13.318535 2.15586854,13.1853496 2.05070423,13.0788013 C1.84037559,12.8923418 1.49859155,12.8923418 1.31455399,13.0788013 C1.20938967,13.1853496 1.15680751,13.318535 1.15680751,13.4517203 C1.15680751,13.5849057 1.20938967,13.718091 1.31455399,13.8246393 C1.41971831,13.9311876 1.55117371,13.9844617 1.68262911,13.9844617 Z M23.6619718,23.4672586 C23.6619718,23.7602664 23.4253521,24 23.1361502,24 L0.525821596,24 C0.236619718,24 0,23.7602664 0,23.4672586 C0,23.1742508 0.236619718,22.9345172 0.525821596,22.9345172 L1.23568075,22.9345172 C1.18309859,22.7746948 1.15680751,22.6148724 1.15680751,22.4284129 L1.15680751,15.1298557 C1.15680751,14.8368479 1.39342723,14.5971143 1.68262911,14.5971143 C1.91924883,14.5971143 2.12957746,14.7569367 2.18215962,14.9700333 C2.2084507,15.0233074 2.2084507,15.0765816 2.2084507,15.1298557 L2.2084507,22.4284129 C2.2084507,22.7214206 2.41877934,22.9345172 2.70798122,22.9345172 L11.857277,22.9345172 L11.857277,14.8901221 C11.857277,14.5971143 12.0938967,14.3573807 12.3830986,14.3573807 L18.5877934,14.3573807 C18.8769953,14.3573807 19.113615,14.5971143 19.113615,14.8901221 L19.113615,22.9345172 L20.9276995,22.9345172 C21.2169014,22.9345172 21.42723,22.6947836 21.42723,22.4284129 L21.42723,11.1342952 L20.4544601,12.1198668 C20.3755869,12.2264151 20.2441315,12.2796892 20.1126761,12.2796892 C19.9812207,12.2796892 19.8497653,12.2264151 19.7446009,12.1198668 L17.3521127,9.69589345 L16.4319249,10.6281909 L14.9596244,12.1198668 C14.8544601,12.2264151 14.7230047,12.2796892 14.5915493,12.2796892 C14.4600939,12.2796892 14.3286385,12.2264151 14.2234742,12.1198668 L13.5924883,11.5072142 L11.8309859,9.69589345 L9.43849765,12.1198668 C9.33333333,12.2264151 9.20187793,12.2796892 9.07042254,12.2796892 C8.93896714,12.2796892 8.80751174,12.2264151 8.70234742,12.1198668 L6.30985915,9.69589345 L3.91737089,12.1198668 C3.81220657,12.2264151 3.68075117,12.2796892 3.54929577,12.2796892 C3.41784038,12.2796892 3.28638498,12.2264151 3.18122066,12.1198668 L2.2084507,11.1342952 L2.2084507,11.7469478 C2.2084507,12.0399556 1.97183099,12.2796892 1.68262911,12.2796892 C1.39342723,12.2796892 1.15680751,12.0399556 1.15680751,11.7469478 L1.15680751,10.0688124 L0.420657277,9.32297447 C0.315492958,9.21642619 0.262910798,9.08324084 0.262910798,8.95005549 L0.262910798,6.15316315 C0.262910798,6.15316315 0.262910798,6.15316315 0.262910798,6.12652608 C0.262910798,6.09988901 0.262910798,6.09988901 0.262910798,6.07325194 C0.262910798,6.04661487 0.262910798,6.04661487 0.262910798,6.0199778 C0.262910798,5.99334073 0.262910798,5.99334073 0.262910798,5.96670366 C0.262910798,5.94006659 0.262910798,5.94006659 0.289201878,5.91342952 C0.289201878,5.91342952 0.289201878,5.88679245 0.315492958,5.86015538 C0.315492958,5.83351831 0.341784038,5.83351831 0.341784038,5.80688124 C0.341784038,5.80688124 0.341784038,5.80688124 0.341784038,5.78024417 L4.83755869,0.186459489 C4.942723,0.0532741398 5.10046948,0 5.23192488,0 L18.3511737,0 C18.5089202,0 18.6666667,0.0799112098 18.7455399,0.186459489 L23.2413146,5.78024417 C23.2413146,5.78024417 23.2413146,5.78024417 23.2413146,5.80688124 C23.2676056,5.83351831 23.2676056,5.83351831 23.2676056,5.86015538 C23.2676056,5.88679245 23.2938967,5.88679245 23.2938967,5.91342952 C23.2938967,5.94006659 23.2938967,5.94006659 23.3201878,5.96670366 C23.3201878,5.99334073 23.3201878,5.99334073 23.3201878,6.0199778 C23.3201878,6.04661487 23.3201878,6.04661487 23.3201878,6.07325194 C23.3201878,6.09988901 23.3201878,6.09988901 23.3201878,6.12652608 C23.3201878,6.12652608 23.3201878,6.12652608 23.3201878,6.15316315 L23.3201878,8.95005549 C23.3201878,9.08324084 23.2676056,9.21642619 23.1624413,9.32297447 L22.4262911,10.0688124 L22.4262911,22.4017758 C22.4262911,22.5882353 22.4,22.7480577 22.3474178,22.9078801 L23.1361502,22.9078801 C23.4253521,22.9345172 23.6619718,23.1742508 23.6619718,23.4672586 Z M5.78403756,6.68590455 L1.31455399,6.68590455 L1.31455399,8.73695893 L3.54929577,11.0011099 L5.78403756,8.73695893 L5.78403756,6.68590455 Z M7.72957746,1.09211987 L5.52112676,1.09211987 L1.89295775,5.62042175 L5.96807512,5.62042175 L7.72957746,1.09211987 Z M11.3051643,6.68590455 L6.83568075,6.68590455 L6.83568075,8.73695893 L9.07042254,11.0011099 L11.3051643,8.73695893 L11.3051643,6.68590455 Z M11.3051643,1.09211987 L8.88638498,1.09211987 C8.88638498,1.09211987 8.88638498,1.09211987 8.88638498,1.11875694 L7.09859155,5.62042175 L11.3051643,5.62042175 L11.3051643,1.09211987 Z M18.0882629,15.4228635 L12.9089202,15.4228635 L12.9089202,22.9345172 L18.0619718,22.9345172 L18.0619718,15.4228635 L18.0882629,15.4228635 Z M12.3568075,5.62042175 L16.5633803,5.62042175 L14.8018779,1.11875694 C14.8018779,1.11875694 14.8018779,1.11875694 14.8018779,1.09211987 L12.3568075,1.09211987 L12.3568075,5.62042175 Z M16.8262911,6.68590455 L12.3568075,6.68590455 L12.3568075,8.73695893 L14.5915493,11.0011099 L16.8262911,8.73695893 L16.8262911,6.68590455 Z M17.7201878,5.62042175 L21.7953052,5.62042175 L18.1408451,1.09211987 L15.9323944,1.09211987 L17.7201878,5.62042175 Z M22.3474178,6.68590455 L17.8779343,6.68590455 L17.8779343,8.73695893 L20.1126761,11.0011099 L22.3474178,8.73695893 L22.3474178,6.68590455 Z" id="Shape"></path>
            </g>
        </g>
    </g>
</svg>